<?xml version="1.0" encoding="utf-8"?>
<!-- Generator: Adobe Illustrator 28.1.0, SVG Export Plug-In . SVG Version: 6.00 Build 0)  -->
<svg version="1.1" id="レイヤー_1" xmlns="http://www.w3.org/2000/svg" xmlns:xlink="http://www.w3.org/1999/xlink" x="0px"
	 y="0px" viewBox="0 0 40 40" style="enable-background:new 0 0 40 40;" xml:space="preserve">
<style type="text/css">
	.st0{fill:url(#SVGID_1_);}
</style>
<linearGradient id="SVGID_1_" gradientUnits="userSpaceOnUse" x1="20.0016" y1="35.9836" x2="20.0016" y2="3.7628" gradientTransform="matrix(1 0 0 -1 0 39.8898)">
	<stop  offset="0" style="stop-color:#A4C1FF"/>
	<stop  offset="1" style="stop-color:#0E78F9"/>
</linearGradient>
<path class="st0" d="M15.3,3.9c0.6,0,1.2,0,1.8,0h5.8c0.6,0,1.2,0,1.8,0c1.6,0,3.2,0,4.3,0c4,0.3,6.7,2.7,7.1,6.7
	c0.1,1.5,0.1,3.2,0.1,5.3v0c0,0.4,0,0.7,0,1.1v5.8c0,0.4,0,0.7,0,1.1c0,2.1,0,3.9-0.1,5.3c-0.4,4.1-3.1,6.5-7.1,6.7
	c-1.1,0.1-2.7,0.1-4.3,0c-0.6,0-1.2,0-1.8,0h-5.8c-0.6,0-1.2,0-1.8,0c-1.6,0-3.2,0-4.3,0c-4-0.3-6.7-2.7-7.1-6.7
	c-0.1-1.5-0.1-3.2-0.1-5.3v0c0-0.4,0-0.7,0-1.1v-5.8c0-0.4,0-0.7,0-1.1v0c0-2.1,0-3.9,0.1-5.3C4.3,6.6,7.1,4.2,11,4
	C12.1,3.9,13.7,3.9,15.3,3.9z"/>
</svg>
