<?xml version="1.0" encoding="utf-8"?>
<!-- Generator: Adobe Illustrator 28.1.0, SVG Export Plug-In . SVG Version: 6.00 Build 0)  -->
<svg version="1.1" id="レイヤー_1" xmlns="http://www.w3.org/2000/svg" xmlns:xlink="http://www.w3.org/1999/xlink" x="0px"
	 y="0px" viewBox="0 0 200 75" style="enable-background:new 0 0 200 75;" xml:space="preserve">
<style type="text/css">
	.st0{display:none;fill:url(#SVGID_1_);}
	.st1{display:none;}
	.st2{display:inline;fill:url(#SVGID_00000047042765195713318100000002138664610726575807_);}
	
		.st3{display:inline;fill:none;stroke:url(#SVGID_00000157288470627445883480000008825217074535858616_);stroke-width:0.567;stroke-miterlimit:5.0314;}
	.st4{display:inline;fill:url(#SVGID_00000178897901756753546660000013457088724862648977_);}
	
		.st5{display:inline;fill:none;stroke:url(#SVGID_00000070083882921403963880000001509275283084664972_);stroke-width:0.567;stroke-miterlimit:5.0314;}
	.st6{display:none;fill:#FFFFFF;}
	.st7{fill:#FFFFFF;}
</style>
<linearGradient id="SVGID_1_" gradientUnits="userSpaceOnUse" x1="-14.7377" y1="149.396" x2="-14.7377" y2="108.0807" gradientTransform="matrix(1.2579 0 0 -1.2579 50.7987 199.0155)">
	<stop  offset="0" style="stop-color:#A4C1FF"/>
	<stop  offset="1" style="stop-color:#0E78F9"/>
</linearGradient>
<path class="st0" d="M24.7,11.1c1,0,1.9,0,2.8,0h9.3c0.9,0,1.9,0,2.8,0c2.6,0,5.2,0,6.9,0.1c6.4,0.4,10.8,4.3,11.4,10.9
	c0.1,2.4,0.1,5.2,0.1,8.6v0c0,0.6,0,1.2,0,1.8v9.3c0,0.6,0,1.2,0,1.8c0,3.4,0,6.2-0.1,8.6c-0.6,6.6-5,10.5-11.4,10.9
	c-1.8,0.1-4.4,0.1-6.9,0.1c-1,0-1.9,0-2.8,0h-9.3c-0.9,0-1.9,0-2.8,0c-2.6,0-5.2,0-6.9-0.1C11.4,62.6,7,58.7,6.4,52.1
	c-0.1-2.4-0.1-5.2-0.1-8.6v0c0-0.6,0-1.2,0-1.8v-9.3c0-0.6,0-1.2,0-1.8v0c0-3.4,0-6.2,0.1-8.6c0.6-6.6,5-10.5,11.4-10.9
	C19.6,11.1,22.2,11.1,24.7,11.1z"/>
<g class="st1">
	
		<linearGradient id="SVGID_00000139280362442914489450000008314530650610416784_" gradientUnits="userSpaceOnUse" x1="-18.6467" y1="136.5734" x2="-18.6467" y2="120.996" gradientTransform="matrix(1.2579 0 0 -1.2579 50.7987 199.0155)">
		<stop  offset="0" style="stop-color:#FFFFFF"/>
		<stop  offset="1" style="stop-color:#C5D4F7"/>
	</linearGradient>
	<path style="display:inline;fill:url(#SVGID_00000139280362442914489450000008314530650610416784_);" d="M14.7,29.6
		c0-1.3,1.1-2.4,2.4-2.4h16.8c3.3,0,6,2.7,6,6v11.2c0,1.3-1.1,2.4-2.4,2.4H20.8c-3.3,0-6-2.7-6-6V29.6z"/>
	
		<linearGradient id="SVGID_00000147206278127968723130000011120910664478971055_" gradientUnits="userSpaceOnUse" x1="-18.6467" y1="136.5734" x2="-18.6467" y2="120.996" gradientTransform="matrix(1.2579 0 0 -1.2579 50.7987 199.0155)">
		<stop  offset="0" style="stop-color:#FFFFFF"/>
		<stop  offset="1" style="stop-color:#637ACA"/>
	</linearGradient>
	
		<path style="display:inline;fill:none;stroke:url(#SVGID_00000147206278127968723130000011120910664478971055_);stroke-width:0.567;stroke-miterlimit:5.0314;" d="
		M17.1,27.5h16.8c3.2,0,5.8,2.6,5.8,5.8v11.2c0,1.2-0.9,2.1-2.1,2.1H20.8c-3.2,0-5.8-2.6-5.8-5.8V29.6C15,28.5,16,27.5,17.1,27.5z"
		/>
</g>
<g class="st1">
	
		<linearGradient id="SVGID_00000152263302172051294420000002317185894327600574_" gradientUnits="userSpaceOnUse" x1="-4.0961" y1="136.4232" x2="-4.0961" y2="121.1081" gradientTransform="matrix(1.2579 0 0 -1.2579 50.7987 199.0155)">
		<stop  offset="0" style="stop-color:#FFFFFF"/>
		<stop  offset="1" style="stop-color:#C5D4F7"/>
	</linearGradient>
	<path style="display:inline;fill:url(#SVGID_00000152263302172051294420000002317185894327600574_);" d="M41.5,34.2
		c0-0.8,0.4-1.6,1-2.1l4.8-4.2c1-0.9,2.6-0.2,2.6,1.2v16.1c0,1.3-1.6,2.1-2.6,1.2l-4.4-3.7c-0.9-0.7-1.4-1.8-1.4-3V34.2z"/>
	
		<linearGradient id="SVGID_00000011004159705723757360000006689729897873461663_" gradientUnits="userSpaceOnUse" x1="-4.0961" y1="136.4231" x2="-4.0961" y2="121.1081" gradientTransform="matrix(1.2579 0 0 -1.2579 50.7987 199.0155)">
		<stop  offset="0" style="stop-color:#FFFFFF"/>
		<stop  offset="1" style="stop-color:#637ACA"/>
	</linearGradient>
	
		<path style="display:inline;fill:none;stroke:url(#SVGID_00000011004159705723757360000006689729897873461663_);stroke-width:0.567;stroke-miterlimit:5.0314;" d="
		M42.6,32.2l4.8-4.2c0.8-0.7,2.1-0.1,2.1,1v16.1c0,1.1-1.3,1.7-2.1,1L43,42.3c-0.8-0.7-1.3-1.7-1.3-2.8v-5.4
		C41.7,33.4,42.1,32.7,42.6,32.2z"/>
</g>
<path class="st6" d="M65.3,24h8.2L80,36.8h0.3L86.7,24h8.2L83.8,44.3v10.2h-7.3V44.3L65.3,24z M124.8,39.3c0,3.4-0.6,6.2-1.9,8.5
	c-1.3,2.3-3,4.1-5.2,5.3c-2.2,1.2-4.7,1.8-7.4,1.8c-2.7,0-5.2-0.6-7.4-1.8c-2.2-1.2-3.9-3-5.2-5.3c-1.3-2.3-1.9-5.2-1.9-8.5
	c0-3.4,0.6-6.2,1.9-8.5c1.3-2.3,3-4.1,5.2-5.3c2.2-1.2,4.7-1.8,7.4-1.8c2.7,0,5.2,0.6,7.4,1.8c2.2,1.2,4,3,5.2,5.3
	C124.2,33.1,124.8,35.9,124.8,39.3z M117.3,39.3c0-2-0.3-3.7-0.8-5c-0.6-1.4-1.4-2.4-2.4-3.1c-1-0.7-2.3-1.1-3.8-1.1
	c-1.5,0-2.7,0.4-3.8,1.1c-1.1,0.7-1.9,1.7-2.4,3.1c-0.6,1.4-0.8,3-0.8,5c0,2,0.3,3.7,0.8,5c0.6,1.4,1.4,2.4,2.4,3.1
	c1.1,0.7,2.3,1.1,3.8,1.1c1.5,0,2.7-0.4,3.8-1.1c1.1-0.7,1.9-1.7,2.4-3.1C117,42.9,117.3,41.3,117.3,39.3z M157.9,39.3
	c0,3.4-0.6,6.2-1.9,8.5c-1.3,2.3-3,4.1-5.2,5.3c-2.2,1.2-4.7,1.8-7.4,1.8c-2.7,0-5.2-0.6-7.4-1.8c-2.2-1.2-3.9-3-5.2-5.3
	c-1.3-2.3-1.9-5.2-1.9-8.5c0-3.4,0.6-6.2,1.9-8.5c1.3-2.3,3-4.1,5.2-5.3c2.2-1.2,4.7-1.8,7.4-1.8c2.7,0,5.2,0.6,7.4,1.8
	c2.2,1.2,4,3,5.2,5.3C157.3,33.1,157.9,35.9,157.9,39.3z M150.4,39.3c0-2-0.3-3.7-0.8-5c-0.6-1.4-1.4-2.4-2.4-3.1
	c-1-0.7-2.3-1.1-3.8-1.1c-1.5,0-2.7,0.4-3.8,1.1c-1.1,0.7-1.9,1.7-2.4,3.1c-0.6,1.4-0.8,3-0.8,5c0,2,0.3,3.7,0.8,5
	c0.6,1.4,1.4,2.4,2.4,3.1c1.1,0.7,2.3,1.1,3.8,1.1c1.5,0,2.7-0.4,3.8-1.1c1.1-0.7,1.9-1.7,2.4-3.1C150.1,42.9,150.4,41.3,150.4,39.3
	z M162.2,24h9.1l7.7,18.9h0.4l7.7-18.9h9.1v30.5h-7.2V35.8h-0.3l-7.3,18.5H177l-7.3-18.6h-0.3v18.8h-7.2V24z"/>
<g>
	<path class="st7" d="M19,23.1h6.7v12.2c0,2.6-0.2,4.5-0.7,5.9c-0.4,1.3-1.3,2.5-2.6,3.4s-3,1.4-5.1,1.4c-2.2,0-3.9-0.3-5.1-0.9
		c-1.2-0.6-2.1-1.5-2.8-2.7c-0.7-1.2-1-2.6-1.2-4.4l6.4-0.9c0,1,0.1,1.7,0.2,2.2c0.2,0.5,0.4,0.9,0.8,1.2c0.3,0.2,0.6,0.3,1.1,0.3
		c0.7,0,1.3-0.3,1.6-0.9c0.3-0.6,0.5-1.6,0.5-2.9V23.1z"/>
	<path class="st7" d="M46.2,39h-12c0.1,1,0.4,1.8,0.8,2.2c0.6,0.7,1.3,1.1,2.3,1.1c0.6,0,1.1-0.2,1.7-0.5c0.3-0.2,0.7-0.5,1-1
		l5.9,0.6c-0.9,1.6-2,2.8-3.3,3.5c-1.3,0.7-3.1,1.1-5.5,1.1c-2.1,0-3.7-0.3-4.9-0.9c-1.2-0.6-2.2-1.6-2.9-2.9
		c-0.8-1.3-1.2-2.9-1.2-4.7c0-2.5,0.8-4.6,2.3-6.2s3.7-2.4,6.5-2.4c2.2,0,4,0.4,5.3,1.1c1.3,0.7,2.3,1.7,3,3.1c0.7,1.3,1,3.1,1,5.2
		V39z M40.1,36c-0.1-1.2-0.4-2.1-0.9-2.6c-0.5-0.5-1.2-0.8-2-0.8c-1,0-1.7,0.4-2.3,1.2c-0.4,0.5-0.6,1.2-0.7,2.2H40.1z"/>
	<path class="st7" d="M49.2,23.1h6v22.5h-6V23.1z"/>
	<path class="st7" d="M59.2,23.1h6v22.5h-6V23.1z"/>
	<path class="st7" d="M67.8,29.3h6.3l3.2,10.8l3-10.8h5.9l-6.2,17.4c-0.7,2-1.4,3.3-2.2,4c-1,1-2.6,1.5-4.7,1.5
		c-0.9,0-2.2-0.1-4-0.4l-0.5-4.4c0.9,0.3,1.8,0.4,2.9,0.4c0.7,0,1.3-0.2,1.7-0.5c0.4-0.3,0.8-0.9,1.1-1.8L67.8,29.3z"/>
	<path class="st7" d="M97.2,38.2l6.3-0.4c0.1,1.1,0.4,1.9,0.8,2.5c0.7,0.9,1.7,1.4,2.9,1.4c0.9,0,1.7-0.2,2.2-0.7
		c0.5-0.5,0.8-1,0.8-1.6c0-0.6-0.2-1.1-0.7-1.6c-0.5-0.5-1.6-0.9-3.4-1.3c-2.9-0.7-5-1.6-6.2-2.7c-1.3-1.1-1.9-2.6-1.9-4.3
		c0-1.2,0.3-2.2,1-3.3c0.6-1,1.6-1.8,2.9-2.4c1.3-0.6,3.1-0.9,5.3-0.9c2.8,0,4.9,0.5,6.3,1.6s2.3,2.8,2.6,5.1l-6.3,0.4
		c-0.2-1-0.5-1.7-1.1-2.2c-0.5-0.5-1.3-0.7-2.2-0.7c-0.8,0-1.4,0.2-1.8,0.5c-0.4,0.3-0.6,0.8-0.6,1.3c0,0.4,0.2,0.7,0.5,1
		c0.3,0.3,1.1,0.6,2.2,0.8c2.9,0.7,5,1.3,6.3,2c1.3,0.7,2.2,1.5,2.7,2.5c0.6,1,0.9,2.1,0.9,3.3c0,1.4-0.4,2.8-1.1,4
		c-0.8,1.2-1.8,2.1-3.2,2.8c-1.4,0.6-3.1,0.9-5.2,0.9c-3.7,0-6.2-0.7-7.6-2.2C98.2,42.3,97.4,40.4,97.2,38.2z"/>
	<path class="st7" d="M131.4,39.2l5.7,0.7c-0.3,1.2-0.8,2.3-1.5,3.2c-0.7,0.9-1.6,1.6-2.7,2.1s-2.5,0.8-4.2,0.8
		c-1.7,0-3-0.2-4.1-0.5c-1.1-0.3-2.1-0.8-2.8-1.6c-0.8-0.7-1.4-1.6-1.9-2.5c-0.5-1-0.7-2.3-0.7-3.9c0-1.7,0.3-3.1,0.8-4.2
		c0.4-0.8,1-1.6,1.6-2.2c0.7-0.6,1.4-1.1,2.1-1.4c1.2-0.5,2.7-0.8,4.5-0.8c2.5,0,4.5,0.5,5.8,1.4c1.3,1,2.3,2.3,2.8,4.2l-5.6,0.8
		c-0.2-0.7-0.5-1.2-1-1.6s-1.1-0.5-1.9-0.5c-1,0-1.8,0.4-2.4,1.1c-0.6,0.7-0.9,1.9-0.9,3.4c0,1.3,0.3,2.4,0.9,3c0.6,0.7,1.4,1,2.3,1
		c0.8,0,1.4-0.2,2-0.6C130.7,40.7,131.1,40.1,131.4,39.2z"/>
	<path class="st7" d="M139.1,37.5c0-2.5,0.8-4.5,2.4-6.1c1.6-1.6,3.8-2.4,6.5-2.4c3.1,0,5.5,0.9,7.1,2.8c1.3,1.5,1.9,3.4,1.9,5.6
		c0,2.5-0.8,4.6-2.4,6.2c-1.6,1.6-3.8,2.4-6.6,2.4c-2.5,0-4.5-0.7-6.1-2C140,42.3,139.1,40.2,139.1,37.5z M145.1,37.5
		c0,1.5,0.3,2.5,0.8,3.2c0.6,0.7,1.3,1,2.1,1c0.9,0,1.6-0.3,2.1-1s0.8-1.8,0.8-3.3c0-1.4-0.3-2.5-0.8-3.2c-0.6-0.7-1.2-1-2.1-1
		c-0.9,0-1.6,0.4-2.2,1.1S145.1,36,145.1,37.5z"/>
	<path class="st7" d="M160,29.3h5.6V32c0.5-1.2,1.1-2,1.7-2.4c0.6-0.4,1.3-0.7,2.1-0.7c0.9,0,1.8,0.3,2.9,0.9l-1.9,4.4
		c-0.7-0.3-1.3-0.5-1.7-0.5c-0.8,0-1.4,0.3-1.8,1c-0.6,1-0.9,2.7-0.9,5.3v5.5h-6V29.3z"/>
	<path class="st7" d="M191.1,39h-12c0.1,1,0.4,1.8,0.8,2.2c0.6,0.7,1.3,1.1,2.3,1.1c0.6,0,1.1-0.2,1.7-0.5c0.3-0.2,0.7-0.5,1-1
		l5.9,0.6c-0.9,1.6-2,2.8-3.3,3.5c-1.3,0.7-3.1,1.1-5.5,1.1c-2.1,0-3.7-0.3-4.9-0.9c-1.2-0.6-2.2-1.6-2.9-2.9
		c-0.8-1.3-1.2-2.9-1.2-4.7c0-2.5,0.8-4.6,2.3-6.2c1.6-1.6,3.7-2.4,6.5-2.4c2.2,0,4,0.4,5.3,1.1c1.3,0.7,2.3,1.7,3,3.1
		c0.7,1.3,1,3.1,1,5.2V39z M185,36c-0.1-1.2-0.4-2.1-0.9-2.6c-0.5-0.5-1.2-0.8-2-0.8c-1,0-1.7,0.4-2.3,1.2c-0.4,0.5-0.6,1.2-0.7,2.2
		H185z"/>
</g>
</svg>
